<svg width="180" height="130" viewBox="0 0 180 130" fill="none" xmlns="http://www.w3.org/2000/svg">
<path d="M115.235 79.8922C120.004 79.8922 133.638 79.8922 135.89 69.5064C138.142 59.1205 103.245 49.9529 103.887 60.517C104.529 71.0811 149.488 63.2242 148.337 50.796C146.881 35.0636 83.1994 23.7858 88.6958 34.6276C94.1923 45.4694 165.737 59.7004 158.678 39.8499C154.639 28.4913 131.864 17.1091 112.695 11.52" stroke="#3F3FFF" stroke-width="2" stroke-linecap="round"/>
<ellipse cx="50.8701" cy="61.0131" rx="5.55192" ry="4.1603" transform="rotate(-42.8599 50.8701 61.0131)" stroke="#CFDCF8" stroke-width="2" stroke-linecap="round" stroke-dasharray="3.58 3.58"/>
<ellipse cx="31.8995" cy="65.1369" rx="5.55192" ry="4.1603" transform="rotate(-42.8599 31.8995 65.1369)" stroke="#CFDCF8" stroke-width="2" stroke-linecap="round" stroke-dasharray="3.58 3.58"/>
<path d="M55.1448 28.9709L55.1448 57.2297" stroke="#CFDCF8" stroke-width="2" stroke-linecap="round" stroke-dasharray="3.58 3.58"/>
<path d="M36.7766 33.21L36.7766 61.4687" stroke="#CFDCF8" stroke-width="2" stroke-linecap="round" stroke-dasharray="3.58 3.58"/>
<path d="M37.13 41.3345L55.1449 37.0957" stroke="#CFDCF8" stroke-width="2" stroke-linecap="round" stroke-dasharray="3.58 3.58"/>
<path d="M37.13 32.857L55.1449 28.6182" stroke="#CFDCF8" stroke-width="2" stroke-linecap="round" stroke-dasharray="3.58 3.58"/>
<ellipse cx="70.2647" cy="30.3049" rx="4.28542" ry="3.42407" transform="rotate(-54.7024 70.2647 30.3049)" stroke="#CFDCF8" stroke-width="2" stroke-linecap="round" stroke-dasharray="2.38 2.98"/>
<path d="M69.5128 9.85962L73.2159 26.6505" stroke="#CFDCF8" stroke-width="2" stroke-linecap="round" stroke-dasharray="3.58 3.58"/>
<path d="M69.5128 9.85962L77.4492 11.7969" stroke="#CFDCF8" stroke-width="2" stroke-linecap="round" stroke-dasharray="3.58 3.58"/>
<ellipse cx="78.0339" cy="112.131" rx="37.8187" ry="11.2511" transform="rotate(-10.3609 78.0339 112.131)" fill="#CFDCF8"/>
<path fill-rule="evenodd" clip-rule="evenodd" d="M76.1613 105.553C99.1486 105.553 117.783 99.5415 117.783 92.1262C117.783 84.711 99.1486 78.6997 76.1613 78.6997C53.174 78.6997 34.5392 84.711 34.5392 92.1262C34.5392 99.5415 53.174 105.553 76.1613 105.553ZM93.6156 89.4409C93.6156 92.407 85.801 94.8115 76.1612 94.8115C66.5213 94.8115 58.7067 92.407 58.7067 89.4409C58.7067 86.4748 66.5213 84.0703 76.1612 84.0703C85.801 84.0703 93.6156 86.4748 93.6156 89.4409ZM81.0295 88.3187C81.0295 87.4333 78.8763 86.7156 76.2201 86.7156C73.564 86.7156 71.4108 87.4333 71.4108 88.3187C71.4108 89.204 73.564 89.9218 76.2201 89.9218C78.8763 89.9218 81.0295 89.204 81.0295 88.3187Z" fill="#3F3FFF"/>
<path fill-rule="evenodd" clip-rule="evenodd" d="M93.8545 85.7992C94.6026 86.1809 96.545 87.6429 95.9488 90.0278C99.1156 90.0278 104.221 90.4313 108.923 90.803C110.886 90.9582 112.779 91.1078 114.431 91.2202C112.187 87.785 106.084 84.6619 101.911 83.4695C100.478 83.8789 99.2557 84.2181 98.2079 84.5088C96.2042 85.0648 94.8382 85.4439 93.8545 85.7992ZM55.7346 91.5247C55.7346 92.6697 57.9619 94.9599 60.1892 94.9599C58.1137 95.5553 55.565 96.6194 53.1383 97.6325C51.3674 98.3718 49.6616 99.084 48.252 99.5671C44.0786 98.9709 37.9162 94.2012 37.9162 91.5247H55.7346Z" fill="#FFC003"/>
</svg>
