<svg width="41" height="41" viewBox="0 0 41 41" fill="none" xmlns="http://www.w3.org/2000/svg">
<path d="M21 20.5V1.5C21 1.22386 20.7761 1 20.5 1C20.2239 1 20 1.22386 20 1.5V2V20.5C20 20.7761 19.7761 21 19.5 21H1.5C1.22386 21 1 21.2239 1 21.5C1 21.7761 1.22386 22 1.5 22H19.5C19.7761 22 20 22.2239 20 22.5V39.5C20 39.7761 20.2239 40 20.5 40C20.7761 40 21 39.7761 21 39.5V22.5C21 22.2239 21.2239 22 21.5 22H39.5C39.7761 22 40 21.7761 40 21.5C40 21.2239 39.7761 21 39.5 21H21.5C21.2239 21 21 20.7761 21 20.5Z" fill="#3F3FFF" stroke="#3F3FFF" stroke-width="0.1"/>
</svg>
