<svg width="27" height="13" viewBox="0 0 27 13" fill="none" xmlns="http://www.w3.org/2000/svg">
<rect width="27" height="13" rx="6.5" fill="#3F3FFF"/>
<path d="M9.02996 3.45455V10H8.12229L4.79523 5.19957H4.73451V10H3.74694V3.45455H4.661L7.99126 8.26136H8.05198V3.45455H9.02996ZM10.4706 10V3.45455H14.5743V4.30469H11.4581V6.29901H14.3601V7.14595H11.4581V9.14986H14.6126V10H10.4706ZM17.175 10L15.3597 3.45455H16.3984L17.6736 8.52344H17.7343L19.0607 3.45455H20.0898L21.4161 8.52663H21.4769L22.7489 3.45455H23.7908L21.9723 10H20.9783L19.6008 5.0973H19.5497L18.1722 10H17.175Z" fill="white"/>
</svg>
