<svg width="180" height="130" viewBox="0 0 180 130" fill="none" xmlns="http://www.w3.org/2000/svg">
<path fill-rule="evenodd" clip-rule="evenodd" d="M150.825 79.1004C148.874 74.2925 144.158 70.9019 138.649 70.9019C132.954 70.9019 128.106 74.5265 126.285 79.5947C122.732 80.8216 120.179 84.196 120.179 88.1665C120.179 93.1736 124.238 97.2326 129.245 97.2326H152.149C157.156 97.2326 161.215 93.1736 161.215 88.1665C161.215 83.1595 157.156 79.1004 152.149 79.1004H150.825Z" fill="#CFDCF8"/>
<path d="M72.0769 52.44C81.6118 46.4946 96.5763 60.8627 102.867 68.7899C116.275 50.4582 134.153 45.9991 142.596 58.3854C151.038 70.7717 127.697 103.472 91.9413 115.362C59.165 92.0762 60.1582 59.8718 72.0769 52.44Z" fill="#3F3FFF"/>
<path fill-rule="evenodd" clip-rule="evenodd" d="M34.1598 83.0663C35.9988 73.9397 44.5183 67.0386 54.7504 67.0386C64.0619 67.0386 71.9552 72.7539 74.686 80.6606C82.1799 81.2948 88.0382 86.8211 88.0382 93.5446C88.0382 99.5836 83.312 104.657 76.9195 106.087C75.9445 106.35 74.9191 106.49 73.861 106.49H30.7119C24.2436 106.49 19 101.247 19 94.7782C19 88.3099 24.2436 83.0663 30.7119 83.0663H34.1598Z" fill="#CFDCF8"/>
<path d="M100.399 17.3088L95.5262 48.9795" stroke="#CFDCF8" stroke-width="2" stroke-linecap="round" stroke-dasharray="3.79 3.79"/>
<path d="M117.858 14.4663L113.392 46.9491" stroke="#CFDCF8" stroke-width="2" stroke-linecap="round" stroke-dasharray="3.79 3.79"/>
<path d="M109.737 10L106.895 30.7078" stroke="#CFDCF8" stroke-width="2" stroke-linecap="round" stroke-dasharray="3.79 3.79"/>
<path d="M125.573 25.4301L119.924 68.8145" stroke="#CFDCF8" stroke-width="2" stroke-linecap="round" stroke-dasharray="3.79 3.79"/>
<path d="M124.926 86.5564C121.007 97.6636 115.628 119.847 125.464 119.72C135.301 119.594 129.204 97.5585 124.926 86.5564Z" fill="#FFC003"/>
</svg>
