<svg width="180" height="130" viewBox="0 0 180 130" fill="none" xmlns="http://www.w3.org/2000/svg">
<path opacity="0.5" d="M35.3802 40.8995L52.296 117.484C52.5681 118.716 53.7749 119.505 55.0125 119.259L118.251 106.723C119.515 106.473 120.333 105.24 120.072 103.978L104.306 27.662C104.05 26.4209 102.845 25.6152 101.6 25.8524L37.2114 38.1201C35.9267 38.3649 35.0981 39.6225 35.3802 40.8995Z" fill="#CFDCF8"/>
<path d="M46.213 30.6754L58.4117 107.537C58.6094 108.782 59.7656 109.642 61.0151 109.472L124.898 100.799C126.175 100.626 127.066 99.4444 126.882 98.1685L115.813 21.6407C115.632 20.387 114.479 19.5105 113.222 19.6716L48.2092 28.0106C46.9114 28.177 46.0079 29.3831 46.213 30.6754Z" fill="#CFDCF8"/>
<path d="M63.5002 43.3599L100.62 38.1399" stroke="white" stroke-width="3" stroke-linecap="round"/>
<path d="M65.8202 55.5397L96.56 51.4797" stroke="white" stroke-width="3" stroke-linecap="round"/>
<path d="M67.5602 70.0398L91.34 66.5598" stroke="white" stroke-width="3" stroke-linecap="round"/>
<path d="M105.774 72.6225C111.602 59.3162 128.7 51.493 127.866 57.1431C127.032 62.7933 110.485 59.6268 120.814 51.0263C127.221 45.6917 138.339 47.8618 142.009 49.4696" stroke="#FEC200" stroke-width="2" stroke-linecap="round"/>
<path d="M150.592 31.7822L154.038 45.0675" stroke="#FEC200" stroke-width="2" stroke-linecap="round"/>
<path d="M150.591 31.7814C153.011 30.8585 155.789 31.3193 157.481 34.4253" stroke="#FEC200" stroke-width="2" stroke-linecap="round"/>
<path d="M154.092 43.8828C154.497 44.3488 154.625 45.0764 154.376 45.9617C154.128 46.8415 153.523 47.804 152.594 48.6121C151.665 49.4203 150.627 49.8868 149.722 50.0097C148.81 50.1334 148.108 49.9067 147.702 49.4407C147.297 48.9748 147.17 48.2472 147.419 47.3619C147.666 46.4821 148.272 45.5195 149.201 44.7114C150.13 43.9033 151.167 43.4368 152.073 43.3139C152.984 43.1901 153.687 43.4169 154.092 43.8828Z" fill="#FEC200" stroke="#FEC200" stroke-width="1.13569"/>
</svg>
