<svg width="150" height="35" viewBox="0 0 150 35" fill="none" xmlns="http://www.w3.org/2000/svg">
<rect width="150" height="34.6154" fill="white"/>
<path d="M13.8164 20.25C14.2591 20.25 14.6758 20.2142 15.0664 20.1426C15.457 20.0645 15.8151 19.9668 16.1406 19.8496C16.4727 19.7324 16.7721 19.599 17.0391 19.4492C17.306 19.2995 17.5404 19.1497 17.7422 19H19.373V24H6.31641V19.7617L7.56641 19.5176V13.502L6.31641 13.2578V9H19.373V14H17.8008C17.5924 13.8568 17.3516 13.7103 17.0781 13.5605C16.8047 13.4108 16.4987 13.2773 16.1602 13.1602C15.8281 13.0365 15.4668 12.9388 15.0762 12.8672C14.6855 12.7891 14.2656 12.75 13.8164 12.75V15.416L16.7461 14.7812V18.2383L13.8164 17.6035V20.25ZM20.2031 24V20.5625L25.252 13.6973C24.9069 13.6973 24.5846 13.7331 24.2852 13.8047C23.9857 13.8698 23.709 13.9577 23.4551 14.0684C23.2012 14.179 22.9701 14.3027 22.7617 14.4395C22.5599 14.5697 22.3809 14.7031 22.2246 14.8398H20.7207V10.25H31.3652V13.9609L26.8633 20.4062C27.0065 20.4258 27.1497 20.4355 27.293 20.4355C27.5729 20.4355 27.8398 20.4062 28.0938 20.3477C28.3477 20.2826 28.582 20.2012 28.7969 20.1035C29.0117 20.0059 29.207 19.8984 29.3828 19.7812C29.5651 19.6576 29.7246 19.5371 29.8613 19.4199H31.3652V24H20.2031ZM40.0273 16.2949L42.7324 15.7188V18.502L40.0273 17.916V20.0742C40.418 20.0742 40.7956 20.0482 41.1602 19.9961C41.5247 19.9375 41.8633 19.8594 42.1758 19.7617C42.4883 19.6641 42.7747 19.5501 43.0352 19.4199C43.2956 19.2897 43.5202 19.1497 43.709 19H45.0469V24H32.9766V20.1035L34.1484 19.8789V14.3418L32.9766 14.1172V10.25H45.0469V15.25H43.709C43.5202 15.1068 43.2956 14.9701 43.0352 14.8398C42.7747 14.7096 42.4883 14.5957 42.1758 14.498C41.8633 14.4004 41.5247 14.3223 41.1602 14.2637C40.7956 14.2051 40.418 14.1758 40.0273 14.1758V16.2949ZM51.3164 16.7832V19.8789L52.498 20.0938V24H46.6191V20.1035L47.791 19.8789V14.3223L46.6191 14.0977V10.25H53.6699L58.3672 17.6621V14.3418L57.1953 14.0977V10.25H63.0645V14.0977L61.8926 14.3223V19.8789L63.0645 20.1035V24H56.0137L51.3164 16.7832ZM72.498 16.6855V24H65.0078V19.7617L66.2578 19.5176V13.4824L65.0078 13.2383V9H72.498L75.6426 14.7617L78.7578 9H86.2578V13.2383L85.0078 13.4824V19.5176L86.2578 19.7617V24H78.7578V16.6855L75.6426 22.0762L72.498 16.6855ZM103.367 14.3223C103.361 14.5176 103.357 14.7096 103.357 14.8984C103.357 15.0807 103.357 15.2565 103.357 15.4258V16.9395C103.357 18.2415 103.178 19.3581 102.82 20.2891C102.462 21.2135 101.977 21.972 101.365 22.5645C100.753 23.1569 100.034 23.5736 99.207 23.8145C98.3867 24.0553 97.5143 24.1758 96.5898 24.1758C95.5221 24.1758 94.5228 24.0553 93.5918 23.8145C92.6673 23.5736 91.86 23.1569 91.1699 22.5645C90.4863 21.9655 89.946 21.2038 89.5488 20.2793C89.1582 19.3548 88.9629 18.2415 88.9629 16.9395V14.3223L87.791 14.0977V10.25H95.418V14.0977L94.2461 14.3223V15.4844C94.2461 15.6406 94.2461 15.8001 94.2461 15.9629C94.2461 16.1191 94.2461 16.2656 94.2461 16.4023C94.2526 16.5391 94.2559 16.6595 94.2559 16.7637C94.2559 16.8613 94.2559 16.9264 94.2559 16.959C94.2559 17.1087 94.2591 17.2845 94.2656 17.4863C94.2721 17.6816 94.2982 17.8867 94.3438 18.1016C94.3893 18.3099 94.4577 18.5182 94.5488 18.7266C94.6465 18.9284 94.7799 19.1107 94.9492 19.2734C95.125 19.4362 95.3431 19.5697 95.6035 19.6738C95.8704 19.7715 96.1992 19.8203 96.5898 19.8203C96.9805 19.8203 97.3092 19.7715 97.5762 19.6738C97.8496 19.5697 98.071 19.4362 98.2402 19.2734C98.416 19.1042 98.5527 18.9154 98.6504 18.707C98.748 18.4987 98.8164 18.2904 98.8555 18.082C98.901 17.8672 98.9271 17.6621 98.9336 17.4668C98.9466 17.265 98.9531 17.0892 98.9531 16.9395C98.9531 16.8939 98.9531 16.8223 98.9531 16.7246C98.9531 16.6204 98.9499 16.5033 98.9434 16.373C98.9434 16.2363 98.9434 16.0931 98.9434 15.9434C98.9434 15.7871 98.9434 15.6341 98.9434 15.4844V14.3223L97.7715 14.0977V10.25H104.549V14.0977L103.367 14.3223ZM118.035 19.6738C118.035 20.2793 117.947 20.8164 117.771 21.2852C117.602 21.7474 117.368 22.151 117.068 22.4961C116.775 22.8346 116.424 23.1178 116.014 23.3457C115.61 23.5736 115.174 23.7591 114.705 23.9023C114.236 24.0391 113.745 24.1172 113.23 24.1367C112.723 24.1628 112.215 24.1758 111.707 24.1758C111.004 24.1758 110.369 24.1595 109.803 24.127C109.236 24.0944 108.729 24.0228 108.279 23.9121C107.837 23.8014 107.443 23.681 107.098 23.5508C106.759 23.4141 106.46 23.2806 106.199 23.1504V19.7617H108.963C109.236 20.1914 109.549 20.5072 109.9 20.709C110.252 20.9108 110.613 21.0117 110.984 21.0117C111.095 21.0117 111.219 21.002 111.355 20.9824C111.492 20.9629 111.619 20.901 111.736 20.7969C111.854 20.6927 111.951 20.5332 112.029 20.3184C112.114 20.097 112.156 19.7878 112.156 19.3906C111.629 19.3451 111.105 19.2799 110.584 19.1953C110.07 19.1042 109.575 18.9837 109.1 18.834C108.631 18.6842 108.195 18.4954 107.791 18.2676C107.387 18.0332 107.036 17.7533 106.736 17.4277C106.443 17.0957 106.212 16.7083 106.043 16.2656C105.874 15.8164 105.789 15.3021 105.789 14.7227C105.789 14.0586 105.874 13.4792 106.043 12.9844C106.212 12.4831 106.443 12.0534 106.736 11.6953C107.029 11.3372 107.374 11.041 107.771 10.8066C108.175 10.5723 108.608 10.3867 109.07 10.25C109.533 10.1133 110.014 10.0189 110.516 9.9668C111.017 9.9082 111.518 9.87891 112.02 9.87891C112.729 9.87891 113.364 9.91471 113.924 9.98633C114.49 10.0579 114.995 10.1491 115.438 10.2598C115.887 10.3704 116.281 10.4941 116.619 10.6309C116.964 10.7611 117.27 10.888 117.537 11.0117V14.4297H114.578C114.331 13.9609 114.048 13.6191 113.729 13.4043C113.41 13.1895 113.084 13.082 112.752 13.082C112.641 13.082 112.514 13.1016 112.371 13.1406C112.228 13.1732 112.094 13.2513 111.971 13.375C111.847 13.4987 111.743 13.681 111.658 13.9219C111.574 14.1628 111.531 14.4883 111.531 14.8984C112.605 14.9375 113.546 15.0514 114.354 15.2402C115.167 15.429 115.848 15.7122 116.395 16.0898C116.941 16.4609 117.352 16.9427 117.625 17.5352C117.898 18.1211 118.035 18.834 118.035 19.6738ZM119.627 10.25H127.85V14.0977L126.678 14.3223V19.8789L127.85 20.1035V24H119.627V20.1035L120.799 19.8789V14.3223L119.627 14.0977V10.25ZM135.145 16.9395C135.145 17.9746 135.408 18.7298 135.936 19.2051C136.463 19.6738 137.212 19.9082 138.182 19.9082C138.755 19.9082 139.425 19.8366 140.193 19.6934C140.968 19.5501 141.84 19.332 142.811 19.0391V23.2871C140.857 23.8796 138.979 24.1758 137.176 24.1758C136.056 24.1758 135.014 24.0456 134.051 23.7852C133.087 23.5182 132.251 23.082 131.541 22.4766C130.831 21.8711 130.271 21.1094 129.861 20.1914C129.458 19.2669 129.256 18.1829 129.256 16.9395C129.256 15.709 129.441 14.651 129.812 13.7656C130.19 12.8737 130.721 12.1413 131.404 11.5684C132.094 10.9889 132.921 10.5625 133.885 10.2891C134.848 10.0156 135.923 9.87891 137.107 9.87891C137.83 9.87891 138.481 9.91471 139.061 9.98633C139.646 10.0579 140.171 10.1491 140.633 10.2598C141.102 10.3704 141.512 10.4941 141.863 10.6309C142.221 10.7611 142.537 10.888 142.811 11.0117V15.2598H140.047C139.734 14.8301 139.389 14.5143 139.012 14.3125C138.634 14.1042 138.24 14 137.83 14C137.492 14 137.16 14.0651 136.834 14.1953C136.515 14.3255 136.229 14.5176 135.975 14.7715C135.727 15.0189 135.525 15.3249 135.369 15.6895C135.219 16.054 135.145 16.4707 135.145 16.9395Z" fill="#2424BA"/>
</svg>
